<?xml version="1.0" standalone="no"?>
<!DOCTYPE svg PUBLIC "-//W3C//DTD SVG 20010904//EN"
 "http://www.w3.org/TR/2001/REC-SVG-20010904/DTD/svg10.dtd">
<svg version="1.0" xmlns="http://www.w3.org/2000/svg"
 width="359.000000pt" height="354.000000pt" viewBox="0 0 359.000000 354.000000"
 preserveAspectRatio="xMidYMid meet">

<g transform="translate(0.000000,354.000000) scale(0.100000,-0.100000)"
fill="#000000" stroke="none">
<path d="M1780 3400 c0 -6 7 -24 15 -39 29 -57 45 -117 45 -174 0 -44 4 -59
16 -64 24 -9 34 15 34 80 0 31 3 56 8 56 22 -4 32 5 52 44 39 75 42 87 20 87
-13 0 -24 -10 -30 -25 -6 -15 -17 -25 -30 -25 -11 0 -20 -7 -20 -15 0 -28 -25
-15 -48 25 -22 40 -62 71 -62 50z"/>
<path d="M1620 3390 c-40 -4 -55 -9 -55 -20 0 -8 10 -16 21 -18 26 -4 29 -14
45 -140 l13 -94 34 6 c19 3 36 6 37 8 1 2 0 30 -3 63 -5 49 -7 55 -12 30 -6
-30 -7 -30 -20 15 -7 25 -13 61 -14 80 -1 31 2 35 28 40 17 3 29 10 28 15 -3
15 -41 21 -102 15z"/>
<path d="M1484 3375 c-7 -17 4 -38 15 -30 12 7 21 -58 21 -152 0 -82 0 -83 25
-83 24 0 25 2 20 53 -2 28 -7 85 -10 126 -3 41 -10 80 -16 88 -15 17 -48 17
-55 -2z"/>
<path d="M1295 3337 c-16 -7 -45 -19 -62 -27 l-33 -14 0 -91 c0 -89 0 -91 28
-103 15 -7 45 -23 66 -36 34 -21 43 -23 67 -13 28 13 135 105 128 111 -11 11
-60 -9 -88 -35 -38 -34 -43 -35 -98 -10 -35 16 -43 25 -49 56 -10 57 6 95 48
117 32 17 43 18 73 8 51 -17 63 -8 29 23 -31 29 -62 33 -109 14z"/>
<path d="M2214 3308 c-17 -24 -35 -56 -42 -71 -7 -16 -21 -31 -32 -34 -11 -3
-20 -13 -20 -23 0 -10 -13 -23 -30 -30 -16 -7 -30 -19 -30 -28 0 -19 74 -11
99 12 10 9 35 16 59 16 l41 0 3 -57 c3 -56 4 -58 32 -61 l29 -4 -5 108 c-3 69
-9 109 -16 112 -7 2 -12 17 -12 33 0 37 -16 69 -34 69 -7 0 -26 -19 -42 -42z
m36 -68 c0 -20 -5 -30 -15 -30 -15 0 -21 40 -8 53 14 15 23 6 23 -23z"/>
<path d="M2464 3220 c-17 -11 -43 -45 -59 -75 -27 -55 -27 -56 -11 -100 10
-24 27 -59 39 -77 21 -31 26 -33 90 -36 66 -3 68 -2 102 35 32 35 33 39 18 55
-9 10 -21 18 -27 18 -6 1 -27 14 -46 30 -20 18 -46 30 -63 30 -25 0 -28 -3
-25 -27 2 -21 11 -30 36 -39 63 -20 68 -54 8 -54 -41 0 -85 43 -92 91 -8 50
33 99 82 99 40 0 93 -24 112 -51 31 -44 44 -2 17 51 -30 58 -128 85 -181 50z"/>
<path d="M971 3113 c-69 -34 -78 -128 -16 -190 39 -39 69 -42 126 -13 86 44
79 168 -11 204 -50 20 -57 20 -99 -1z m74 -39 c9 -9 14 -21 13 -26 -3 -9 -71
-37 -90 -38 -16 0 -7 35 14 57 25 27 41 29 63 7z m43 -83 c-12 -15 -28 -36
-34 -46 -7 -14 -17 -16 -37 -11 -37 9 -34 34 6 51 17 8 43 23 57 34 33 26 38
9 8 -28z"/>
<path d="M2752 3060 c-12 -22 -36 -50 -52 -62 -17 -12 -30 -27 -30 -34 0 -6
-9 -23 -21 -38 -14 -18 -19 -37 -17 -63 4 -37 4 -37 15 -13 6 14 20 34 32 45
19 16 24 17 31 5 12 -19 13 -50 1 -50 -20 0 -20 -45 -1 -65 26 -26 41 -10 44
46 l2 44 52 8 c44 7 55 13 68 39 9 17 13 40 10 53 -8 33 -79 125 -96 125 -8 0
-25 -18 -38 -40z m85 -84 c14 -27 14 -31 -3 -43 -21 -16 -48 -17 -75 -3 -26
14 -24 33 7 70 30 35 43 30 71 -24z"/>
<path d="M804 2983 c-11 -2 -28 -17 -38 -34 -20 -35 -46 -35 -61 -1 -12 28
-20 28 -39 0 -18 -25 -8 -44 31 -59 14 -5 23 -17 23 -29 0 -11 5 -20 10 -20 6
0 15 -10 21 -23 5 -12 23 -30 40 -39 16 -9 29 -24 29 -33 0 -17 25 -21 35 -5
7 12 -8 42 -51 98 -36 47 -35 69 2 78 17 4 34 -4 68 -32 26 -21 46 -44 46 -51
0 -24 20 -24 30 1 9 23 3 32 -56 91 -36 36 -66 64 -67 64 -1 -1 -11 -4 -23 -6z"/>
<path d="M2927 2904 c-16 -13 -35 -24 -43 -24 -8 0 -14 -9 -14 -19 0 -11 -25
-41 -57 -70 l-58 -50 22 -23 23 -22 68 75 c122 132 126 136 105 147 -14 8 -25
4 -46 -14z"/>
<path d="M578 2869 c-21 -12 -24 -39 -5 -39 21 0 47 -34 47 -59 0 -17 4 -21
15 -17 9 3 18 -1 21 -9 4 -8 13 -15 22 -15 8 0 29 -16 46 -35 25 -28 36 -33
59 -28 25 5 39 23 17 23 -12 0 -120 109 -120 121 0 4 6 10 13 12 7 3 5 6 -5 6
-10 1 -18 7 -18 14 0 6 -5 4 -11 -6 -12 -21 -27 -14 -39 19 -10 26 -17 28 -42
13z"/>
<path d="M2958 2788 c-16 -5 -28 -13 -28 -17 0 -5 -13 -25 -30 -46 -22 -28
-30 -48 -30 -78 0 -35 6 -46 45 -84 38 -36 52 -43 85 -43 55 0 58 16 6 39 -81
35 -100 111 -40 167 42 41 54 42 109 9 42 -24 55 -46 55 -96 0 -27 22 -54 33
-42 16 15 6 109 -13 141 -33 54 -120 77 -192 50z"/>
<path d="M467 2725 c-22 -21 -21 -26 4 -75 14 -26 28 -40 40 -40 11 0 47 -18
81 -41 54 -36 88 -44 88 -22 0 4 -27 32 -60 62 -33 30 -60 60 -60 67 0 7 -10
16 -22 20 -12 3 -29 16 -38 27 -15 18 -17 18 -33 2z"/>
<path d="M2030 2629 c0 -14 49 -69 62 -69 17 0 7 17 -17 28 -14 6 -25 18 -25
26 0 8 -4 18 -10 21 -5 3 -10 1 -10 -6z"/>
<path d="M453 2560 c-49 -20 -76 -107 -49 -158 22 -43 49 -55 112 -50 77 7 94
25 94 103 0 56 -2 63 -29 83 -34 25 -96 36 -128 22z m97 -59 c35 -66 -28 -144
-86 -106 -31 20 -37 47 -20 89 14 33 19 36 55 36 30 0 43 -5 51 -19z"/>
<path d="M3205 2563 c-11 -3 -31 -14 -44 -24 -13 -11 -32 -19 -42 -19 -10 0
-23 -8 -28 -18 -5 -10 -26 -27 -45 -37 -31 -17 -36 -24 -36 -56 0 -31 6 -40
40 -64 34 -23 46 -27 81 -21 23 4 51 12 63 19 11 6 46 21 76 33 46 17 56 25
58 47 5 41 -21 44 -70 8 -23 -17 -46 -31 -51 -31 -5 0 -20 -9 -34 -20 -48 -37
-113 -17 -98 30 4 11 31 34 60 51 29 16 59 37 65 44 7 8 20 15 29 15 26 0 42
15 35 33 -6 17 -21 19 -59 10z"/>
<path d="M2120 2542 c0 -5 11 -14 25 -20 14 -7 28 -19 31 -27 9 -21 24 -19 24
4 0 10 -11 26 -25 35 -26 17 -55 21 -55 8z"/>
<path d="M2340 2396 c0 -2 7 -6 15 -10 8 -3 15 -1 15 4 0 6 -7 10 -15 10 -8 0
-15 -2 -15 -4z"/>
<path d="M2070 2376 c-19 -6 -52 -22 -72 -36 -37 -24 -38 -26 -38 -87 0 -60
-1 -63 -25 -63 -14 0 -25 5 -25 10 0 6 -7 10 -16 10 -14 0 -15 -29 -12 -260 2
-143 0 -260 -4 -260 -5 0 -8 93 -9 208 -1 232 -3 279 -12 288 -3 3 -24 -7 -47
-22 -30 -22 -39 -34 -35 -49 10 -39 35 -311 35 -390 0 -87 -10 -116 -32 -97
-16 13 -44 -1 -34 -17 4 -6 0 -14 -8 -17 -20 -8 -21 -24 -2 -24 19 0 16 -52
-2 -58 -9 -3 -13 3 -10 19 3 22 -1 24 -39 27 -36 3 -42 0 -45 -18 -3 -20 -10
-21 -163 -25 -222 -6 -409 -16 -414 -21 -8 -7 15 -25 35 -28 13 -2 21 -14 25
-37 l6 -34 2 38 c1 30 5 37 21 37 11 0 20 -5 20 -12 0 -9 3 -9 12 0 33 33 38
-1 6 -36 -19 -20 -23 -35 -23 -95 0 -55 -3 -71 -13 -69 -10 2 -12 -4 -7 -20 4
-13 11 -27 15 -31 4 -5 5 -26 3 -48 -6 -38 -5 -39 28 -40 19 -1 53 -1 77 0 33
2 42 -1 42 -14 0 -14 6 -16 37 -10 21 4 41 9 45 11 14 9 9 55 -7 70 -13 14
-18 12 -40 -13 -34 -39 -31 -23 5 22 17 21 30 49 30 63 0 25 -1 25 -64 19 -89
-8 -95 -2 -93 102 2 103 21 122 32 32 4 -33 4 -65 0 -70 -9 -15 23 -13 60 3
29 12 29 13 8 20 -42 14 -24 77 21 75 12 0 16 -3 9 -5 -7 -3 -9 -12 -6 -20 3
-9 -1 -14 -12 -14 -9 0 -13 -5 -10 -10 4 -6 14 -9 23 -8 11 2 16 -3 14 -14 -2
-10 1 -18 6 -18 11 0 26 30 23 43 -1 5 3 6 8 3 5 -4 21 6 34 20 15 16 31 24
40 21 9 -3 21 1 27 9 19 21 60 18 60 -5 0 -10 -6 -21 -14 -24 -22 -9 -26 -45
-6 -50 13 -3 16 0 13 14 -3 11 0 19 6 19 6 0 11 9 11 21 0 11 5 17 10 14 23
-14 10 -65 -29 -107 l-40 -42 27 -18 c20 -13 47 -18 104 -18 82 0 111 -13 53
-24 -25 -5 -35 -12 -35 -26 0 -31 30 -37 455 -90 94 -12 209 -28 257 -36 65
-12 91 -13 107 -5 17 9 21 9 21 -3 0 -12 4 -12 31 1 17 8 74 18 127 22 115 8
100 14 -88 36 -160 18 -289 41 -348 61 -23 8 -62 14 -85 15 -23 0 -50 4 -61 8
-17 7 -16 8 7 24 15 9 34 17 44 17 10 0 29 9 43 20 14 11 32 20 41 20 14 0 16
6 8 38 -5 20 -11 69 -14 107 l-5 70 87 -1 c49 -1 132 -5 186 -9 94 -7 97 -7
97 13 0 12 -9 27 -19 34 -25 17 -31 42 -11 43 10 0 16 12 18 33 3 27 -1 35
-17 39 -12 3 -18 9 -15 14 3 5 -2 12 -10 15 -24 9 -10 22 19 16 15 -2 25 0 25
7 0 6 -6 11 -12 12 -7 0 -3 4 10 9 27 11 55 2 48 -15 -3 -8 2 -16 10 -19 20
-8 18 -44 -3 -49 -10 -3 20 -4 67 -3 l85 1 1 33 c1 17 2 37 3 42 0 6 14 10 30
10 59 0 64 9 24 46 -20 19 -43 34 -50 34 -12 0 -18 33 -14 68 1 6 -8 12 -19
12 -13 0 -24 8 -27 18 -2 10 -17 24 -34 31 -16 7 -29 19 -29 26 0 8 -8 18 -17
23 -25 13 -119 24 -182 22 l-53 -1 6 45 c7 45 7 45 -34 66 -22 11 -45 18 -51
15 -6 -4 -8 -40 -5 -93 3 -48 6 -90 6 -93 0 -4 26 -9 58 -13 114 -13 123 -25
15 -21 -56 1 -106 6 -112 9 -6 4 -8 47 -6 116 4 91 2 110 -10 110 -7 0 -17 -4
-20 -10 -15 -24 -25 -6 -25 46 0 47 -3 57 -20 61 -14 4 -20 14 -20 34 0 34 27
30 33 -4 3 -20 4 -19 11 6 7 24 4 34 -25 63 -22 22 -42 34 -60 34 -15 0 -29 4
-31 9 -1 4 -19 3 -38 -3z m-8 -101 c-1 -88 -2 -95 -11 -95 -9 0 -13 129 -4
143 10 16 16 -3 15 -48z m98 14 c0 -24 -3 -30 -16 -25 -9 3 -18 6 -20 6 -2 0
-4 11 -4 25 0 18 5 25 20 25 16 0 20 -7 20 -31z m-147 -21 c-6 -31 -23 -38
-23 -10 0 16 20 46 26 39 1 -1 0 -14 -3 -29z m142 -54 c0 -19 -5 -29 -15 -29
-16 0 -25 28 -16 51 10 25 31 10 31 -22z m-145 -45 c0 -10 -4 -19 -10 -19 -5
0 -10 12 -10 26 0 14 4 23 10 19 6 -3 10 -15 10 -26z m190 16 c0 -8 -4 -15
-10 -15 -5 0 -10 7 -10 15 0 8 5 15 10 15 6 0 10 -7 10 -15z m-144 -52 c-10
-10 -19 5 -10 18 6 11 8 11 12 0 2 -7 1 -15 -2 -18z m99 17 c3 -6 -1 -13 -10
-16 -19 -8 -30 0 -20 15 8 14 22 14 30 1z m-208 -57 c-3 -10 -5 -2 -5 17 0 19
2 27 5 18 2 -10 2 -26 0 -35z m257 32 c3 -9 0 -15 -9 -15 -8 0 -15 7 -15 15 0
8 4 15 9 15 5 0 11 -7 15 -15z m-196 -105 l-1 -65 -7 50 c-5 28 -8 68 -8 90 0
34 1 36 8 15 4 -14 8 -54 8 -90z m51 58 c0 -13 -4 -41 -8 -63 -8 -38 -9 -37
-10 23 -1 35 3 62 9 62 6 0 10 -10 9 -22z m99 0 c-5 -34 -38 -37 -38 -4 0 20
5 26 21 26 15 0 20 -5 17 -22z m-195 -105 c4 -56 2 -71 -8 -67 -8 4 -13 29
-13 81 -1 94 14 84 21 -14z m187 37 c0 -32 -14 -40 -24 -14 -5 14 8 44 20 44
2 0 4 -13 4 -30z m300 -45 c0 -10 -10 -15 -30 -15 -29 0 -38 9 -23 23 13 13
53 7 53 -8z m-250 -141 c3 -74 2 -134 -2 -134 -5 0 -8 35 -8 79 0 43 -3 107
-6 142 -4 37 -3 61 2 56 5 -5 11 -69 14 -143z m-50 111 c0 -8 -4 -15 -10 -15
-5 0 -10 7 -10 15 0 8 5 15 10 15 6 0 10 -7 10 -15z m360 -65 c19 -5 25 -13
25 -36 l0 -29 -70 4 c-38 2 -79 7 -90 12 -16 8 -15 8 8 4 20 -4 27 -1 27 10 0
10 -10 15 -27 15 -40 0 -103 19 -103 31 0 10 183 2 230 -11z m-540 0 c0 -5 -4
-10 -10 -10 -5 0 -10 5 -10 10 0 6 5 10 10 10 6 0 10 -4 10 -10z m30 -132 c0
-27 -4 -48 -10 -48 -5 0 -7 7 -4 15 4 8 3 31 0 50 -5 24 -11 33 -21 28 -8 -3
-15 -1 -15 4 0 18 12 22 31 10 14 -9 19 -24 19 -59z m383 46 c43 -4 80 -11 84
-17 4 -7 -20 -8 -72 -4 -43 4 -93 7 -111 7 -26 0 -32 3 -27 16 4 10 13 14 27
10 11 -3 56 -8 99 -12z m96 -64 c11 -6 -7 -9 -59 -10 -91 0 -150 9 -150 23 0
12 185 1 209 -13z m-62 -182 c-2 -24 -4 -7 -4 37 0 44 2 63 4 43 2 -21 2 -57
0 -80z m-499 0 c-2 -6 -10 -14 -16 -16 -7 -2 -10 2 -6 12 7 18 28 22 22 4z
m192 -8 c0 -5 -5 -10 -11 -10 -5 0 -7 5 -4 10 3 6 8 10 11 10 2 0 4 -4 4 -10z
m20 -36 c0 -2 -12 -4 -26 -4 -14 0 -23 4 -20 9 6 8 46 4 46 -5z m-345 -66 c-4
-13 -16 -32 -26 -43 -19 -19 -19 -19 -19 11 0 32 15 54 38 54 9 0 11 -7 7 -22z
m185 4 c0 -5 -7 -9 -15 -9 -8 0 -15 4 -15 9 0 4 7 8 15 8 8 0 15 -4 15 -8z
m150 -12 c0 -21 -8 -24 -34 -14 -25 10 -19 34 9 34 18 0 25 -5 25 -20z m-700
-10 c0 -5 -5 -10 -11 -10 -5 0 -7 5 -4 10 3 6 8 10 11 10 2 0 4 -4 4 -10z
m502 -27 c22 -20 23 -29 3 -37 -25 -9 -45 4 -45 30 0 28 16 31 42 7z m-144
-104 c-2 -6 -6 -9 -9 -7 -3 2 -13 -3 -23 -11 -21 -17 -33 -7 -16 14 14 17 54
21 48 4z m172 1 c17 -11 16 -11 -26 -15 -16 -1 -41 -6 -55 -9 -21 -7 -21 -5 6
13 33 23 52 26 75 11z m145 0 c4 -6 -7 -10 -27 -10 -25 0 -29 3 -18 10 19 13
37 13 45 0z"/>
<path d="M2397 2346 c-4 -10 -7 -28 -7 -41 0 -28 39 -60 54 -45 6 6 25 10 43
10 18 0 33 4 33 9 0 15 -42 41 -66 41 -12 0 -28 10 -36 22 -13 20 -15 20 -21
4z"/>
<path d="M3292 2318 c-49 -7 -193 -80 -192 -97 0 -3 7 -15 15 -25 8 -10 12
-23 9 -28 -10 -16 7 -49 24 -46 17 3 18 8 21 56 0 12 9 26 19 29 9 4 23 13 30
20 7 7 32 13 55 13 46 0 107 31 107 55 0 24 -31 32 -88 23z"/>
<path d="M226 2311 c-4 -5 -9 -36 -12 -69 -6 -57 -5 -61 20 -77 14 -9 52 -21
83 -25 32 -4 74 -14 95 -23 39 -18 42 -17 68 36 7 15 17 27 22 27 12 0 10 34
-4 48 -21 21 -35 13 -47 -29 -10 -33 -16 -40 -34 -37 -19 3 -22 9 -20 50 1 45
0 48 -24 46 -18 -2 -29 -12 -39 -36 -12 -29 -17 -33 -46 -30 -31 3 -33 5 -33
43 0 22 4 50 8 63 7 18 5 22 -12 22 -11 0 -22 -4 -25 -9z"/>
<path d="M2660 2238 c0 -18 18 -34 28 -24 3 4 -2 14 -11 23 -16 16 -17 16 -17
1z"/>
<path d="M1095 2200 c3 -5 13 -10 21 -10 8 0 12 5 9 10 -3 6 -13 10 -21 10 -8
0 -12 -4 -9 -10z"/>
<path d="M860 2186 c0 -22 -57 -58 -80 -51 -17 5 -20 2 -20 -26 0 -31 0 -31
40 -25 34 5 41 3 51 -16 7 -13 18 -27 25 -31 8 -4 14 -13 14 -18 0 -6 -4 -7
-10 -4 -5 3 -10 2 -10 -3 0 -20 56 -32 150 -32 99 0 99 0 122 31 34 46 78 69
133 69 46 0 47 0 40 27 -9 37 -12 39 -36 25 -12 -8 -33 -10 -56 -6 -25 5 -38
3 -44 -7 -7 -11 -9 -10 -9 4 0 9 5 17 12 17 8 0 9 3 2 10 -7 7 -23 6 -50 -4
-21 -8 -33 -15 -26 -15 6 -1 12 -6 12 -13 0 -6 -7 -4 -18 5 -23 21 -41 21 -70
1 -33 -23 -128 -28 -136 -8 -4 9 -13 14 -21 10 -10 -3 -15 1 -15 13 0 12 11
23 33 30 25 9 29 14 17 21 -22 14 -50 12 -50 -4z m240 -110 c0 -7 -9 -16 -19
-19 -17 -4 -18 -2 -8 14 14 22 27 25 27 5z m42 -18 c-7 -7 -12 -8 -12 -2 0 14
12 26 19 19 2 -3 -1 -11 -7 -17z"/>
<path d="M1168 2183 c7 -3 16 -2 19 1 4 3 -2 6 -13 5 -11 0 -14 -3 -6 -6z"/>
<path d="M970 2170 c-15 -9 -15 -9 34 -24 14 -5 36 12 36 26 0 11 -52 10 -70
-2z"/>
<path d="M3380 2125 c-8 -21 -16 -25 -48 -25 -37 0 -71 -8 -134 -32 -27 -10
-47 -56 -34 -77 7 -11 94 16 114 36 7 7 29 14 48 15 19 0 40 1 46 2 7 1 19
-11 26 -26 7 -16 20 -28 28 -28 13 0 15 9 9 53 -7 48 -29 107 -41 107 -2 0 -9
-11 -14 -25z"/>
<path d="M200 2085 c-19 -20 -24 -39 -28 -100 -4 -67 -2 -78 16 -98 11 -12 25
-34 31 -49 10 -27 13 -28 81 -28 53 0 70 3 70 14 0 7 7 19 16 27 8 7 27 35 40
62 l25 48 -23 70 c-21 64 -38 83 -53 59 -3 -5 1 -39 10 -74 15 -60 15 -66 -1
-91 -22 -34 -44 -45 -89 -45 -53 0 -85 36 -85 95 0 33 5 50 20 62 23 20 28 73
7 73 -8 0 -24 -11 -37 -25z"/>
<path d="M1230 2020 c-9 -6 -10 -10 -3 -10 6 0 15 5 18 10 8 12 4 12 -15 0z"/>
<path d="M1280 2010 c20 -13 43 -13 35 0 -3 6 -16 10 -28 10 -18 0 -19 -2 -7
-10z"/>
<path d="M780 1990 c0 -5 5 -10 10 -10 6 0 10 5 10 10 0 6 -4 10 -10 10 -5 0
-10 -4 -10 -10z"/>
<path d="M828 1963 c7 -3 16 -2 19 1 4 3 -2 6 -13 5 -11 0 -14 -3 -6 -6z"/>
<path d="M695 1950 c28 -12 57 -12 50 0 -3 6 -21 10 -38 9 -27 0 -29 -2 -12
-9z"/>
<path d="M1130 1940 c0 -5 5 -10 10 -10 6 0 10 5 10 10 0 6 -4 10 -10 10 -5 0
-10 -4 -10 -10z"/>
<path d="M1210 1940 c-13 -9 -13 -11 0 -20 20 -14 45 -8 45 10 0 18 -25 24
-45 10z"/>
<path d="M3224 1930 c-11 -4 -29 -24 -38 -44 -14 -29 -15 -43 -6 -76 14 -54
41 -70 115 -70 109 0 165 11 165 31 0 23 -16 27 -65 18 -22 -5 -63 -8 -92 -9
-43 0 -55 4 -67 22 -17 24 -21 64 -8 71 4 3 48 8 97 11 111 8 125 12 125 37 0
18 -8 19 -102 18 -57 0 -112 -4 -124 -9z"/>
<path d="M1325 1913 c-16 -9 -32 -19 -35 -22 -3 -3 -27 -8 -55 -10 -48 -3 -79
-23 -71 -46 5 -16 -13 -45 -28 -45 -8 0 -16 17 -20 40 -5 31 -12 43 -32 50
-14 6 -27 10 -29 10 -8 0 1 -76 10 -82 6 -4 -7 -8 -27 -8 -20 0 -40 -4 -43
-10 -9 -14 -41 -13 -66 3 -17 10 -23 10 -26 0 -3 -7 -13 -13 -24 -13 -11 0
-19 6 -18 13 4 33 -2 68 -11 62 -17 -11 -51 6 -49 23 3 35 -2 42 -26 42 -17 0
-29 -8 -37 -25 -13 -28 -33 -33 -42 -10 -3 8 -12 15 -21 15 -12 0 -15 -14 -15
-70 l0 -70 44 0 c49 0 111 -32 119 -62 4 -13 19 -18 68 -20 l64 -3 3 -87 c2
-70 6 -88 18 -88 23 0 26 21 15 116 -5 49 -8 91 -6 93 2 2 41 5 87 7 46 2 94
5 108 6 14 1 39 -2 55 -6 22 -6 26 -5 15 3 -12 8 -8 11 18 11 17 0 32 4 32 9
0 4 25 19 55 32 30 13 55 27 55 32 0 4 10 21 22 37 17 24 19 33 9 43 -13 13
-15 14 -68 16 l-38 2 25 14 c35 20 2 18 -35 -2z m-55 -47 c0 -2 -7 -7 -16 -10
-8 -3 -12 -2 -9 4 6 10 25 14 25 6z m77 -2 c-3 -3 -12 -4 -19 -1 -8 3 -5 6 6
6 11 1 17 -2 13 -5z m-39 -23 c11 -7 11 -9 -2 -14 -19 -7 -46 1 -46 14 0 11
31 11 48 0z m-86 -18 c-6 -3 -9 -10 -6 -15 4 -7 2 -8 -5 -4 -9 6 -9 11 0 22 6
8 15 12 18 8 3 -4 0 -9 -7 -11z m128 8 c0 -15 -28 -33 -40 -26 -7 5 -5 12 7
21 21 16 33 18 33 5z m-150 -45 c0 -2 -7 -6 -15 -10 -8 -3 -15 -1 -15 4 0 6 7
10 15 10 8 0 15 -2 15 -4z m45 -16 c3 -5 -3 -10 -15 -10 -12 0 -18 5 -15 10 3
6 10 10 15 10 5 0 12 -4 15 -10z m-325 -24 c9 -12 8 -15 -7 -15 -10 1 -29 -2
-43 -5 -25 -6 -25 -6 -2 5 12 7 22 16 22 21 0 13 16 9 30 -6z m200 -6 c-19
-13 -30 -13 -30 0 0 6 10 10 23 10 18 0 19 -2 7 -10z"/>
<path d="M975 1880 c-3 -5 -1 -10 4 -10 6 0 11 5 11 10 0 6 -2 10 -4 10 -3 0
-8 -4 -11 -10z"/>
<path d="M144 1744 c3 -9 6 -18 6 -20 0 -2 61 -4 135 -4 128 0 135 1 135 20 0
19 -7 20 -141 20 -125 0 -140 -2 -135 -16z"/>
<path d="M3184 1698 c-7 -11 11 -32 29 -34 7 0 20 -2 30 -2 9 -1 17 -9 17 -18
0 -11 -6 -15 -20 -11 -12 3 -20 0 -20 -8 0 -7 -11 -29 -25 -49 -41 -60 -30
-89 15 -41 31 32 57 31 100 -5 24 -21 45 -30 71 -30 53 0 67 21 71 110 l3 75
-55 6 c-107 13 -211 16 -216 7z m214 -60 c16 -16 15 -73 -2 -87 -31 -26 -69
19 -59 72 6 29 39 37 61 15z"/>
<path d="M250 1640 c0 -46 -2 -50 -24 -50 -20 0 -25 6 -30 45 -6 36 -11 45
-27 45 -17 0 -19 -7 -19 -71 l0 -72 133 8 c72 4 135 10 139 14 4 3 5 23 2 43
-6 35 -8 37 -38 31 -17 -3 -32 -10 -34 -15 -2 -4 -10 -8 -18 -8 -8 0 -16 15
-20 40 -6 36 -10 40 -35 40 -28 0 -29 -2 -29 -50z"/>
<path d="M1158 1683 c6 -2 18 -2 25 0 6 3 1 5 -13 5 -14 0 -19 -2 -12 -5z"/>
<path d="M2600 1538 c0 -62 2 -68 20 -68 11 0 23 7 26 15 5 11 21 15 60 15 49
0 54 2 60 26 9 37 -6 46 -81 49 -44 1 -70 7 -76 16 -5 9 -9 -11 -9 -53z"/>
<path d="M1130 1551 c0 -6 5 -13 10 -16 6 -3 10 1 10 9 0 9 -4 16 -10 16 -5 0
-10 -4 -10 -9z"/>
<path d="M2794 1547 c-9 -24 0 -80 14 -85 6 -2 12 4 12 14 0 14 3 15 12 6 14
-14 28 -16 28 -3 0 5 -9 13 -20 16 -13 4 -20 15 -20 30 0 28 -18 43 -26 22z"/>
<path d="M2870 1539 c-15 -28 -6 -49 22 -48 13 0 17 3 11 6 -7 2 -13 9 -13 14
0 14 26 10 40 -6 7 -8 16 -15 21 -15 14 0 11 17 -7 34 -8 9 -12 16 -7 16 4 0
1 5 -7 10 -24 16 -49 11 -60 -11z"/>
<path d="M2950 1550 c0 -5 5 -10 11 -10 5 0 7 5 4 10 -3 6 -8 10 -11 10 -2 0
-4 -4 -4 -10z"/>
<path d="M170 1420 c0 -63 3 -80 14 -80 24 0 157 29 214 47 47 15 52 19 52 46
l0 29 -60 -7 c-57 -7 -60 -6 -71 19 -8 17 -20 26 -36 26 -19 0 -23 -5 -23 -29
0 -31 -22 -57 -40 -46 -5 3 -10 22 -10 41 0 27 -4 34 -20 34 -18 0 -20 -7 -20
-80z"/>
<path d="M788 1493 c-138 -4 -133 3 -92 -126 15 -45 28 -88 30 -94 2 -8 21
-13 49 -13 39 0 45 3 45 21 0 19 -4 21 -36 16 l-37 -6 24 25 c18 19 20 27 11
33 -8 5 -11 17 -7 32 11 43 38 68 90 80 84 20 82 19 65 29 -8 6 -17 9 -20 8
-3 -1 -58 -4 -122 -5z"/>
<path d="M3170 1471 c0 -21 48 -41 98 -41 13 0 22 -6 22 -15 0 -12 15 -15 75
-15 l75 0 0 30 c0 29 -2 30 -43 30 -24 0 -70 5 -103 10 -131 23 -124 23 -124
1z"/>
<path d="M2540 1442 c0 -5 -11 -7 -25 -4 -14 2 -25 0 -25 -6 0 -18 22 -25 31
-11 7 12 9 11 9 -1 0 -13 1 -13 10 0 9 13 11 13 21 0 8 -13 10 -12 7 4 -3 20
-28 36 -28 18z"/>
<path d="M2668 1433 c6 -2 18 -2 25 0 6 3 1 5 -13 5 -14 0 -19 -2 -12 -5z"/>
<path d="M3161 1363 c-39 -47 -39 -67 -2 -104 39 -39 72 -37 132 7 29 21 56
34 65 30 21 -8 13 -41 -9 -40 -12 1 -17 -6 -17 -27 0 -24 4 -29 24 -29 29 0
44 17 52 59 5 25 2 37 -16 56 -31 33 -63 31 -121 -6 -27 -17 -56 -29 -66 -27
-29 5 -28 38 2 62 18 15 24 27 20 39 -11 27 -31 20 -64 -20z"/>
<path d="M294 1308 c-53 -26 -74 -63 -74 -126 0 -121 132 -182 242 -111 l48
31 0 80 c0 88 -1 90 -72 128 -47 25 -92 24 -144 -2z m133 -44 c25 -16 39 -70
28 -111 -17 -71 -82 -93 -146 -50 -114 76 3 236 118 161z"/>
<path d="M2348 1298 c-17 -17 -17 -18 7 -18 26 0 30 7 17 26 -4 6 -13 4 -24
-8z"/>
<path d="M1323 1293 c9 -2 23 -2 30 0 6 3 -1 5 -18 5 -16 0 -22 -2 -12 -5z"/>
<path d="M870 1273 c0 -7 11 -13 25 -13 21 0 25 -4 23 -27 -1 -16 -1 -47 0
-70 l2 -43 100 0 100 0 6 27 c4 14 2 40 -5 57 -7 20 -8 32 -1 34 13 5 13 39 0
47 -6 3 -13 -1 -16 -9 -8 -20 -31 -20 -68 -1 -37 20 -166 18 -166 -2z"/>
<path d="M2296 1264 c-4 -10 -1 -14 6 -12 15 5 23 28 10 28 -5 0 -13 -7 -16
-16z"/>
<path d="M3077 1193 c-4 -3 -7 -21 -7 -40 0 -28 4 -33 23 -33 12 0 39 -9 60
-20 20 -11 49 -20 64 -20 41 0 58 -16 58 -52 0 -25 5 -34 20 -36 29 -4 82 102
63 125 -10 13 -13 13 -24 -2 -11 -14 -20 -15 -69 -6 -62 12 -62 12 -123 58
-45 34 -54 38 -65 26z"/>
<path d="M2800 1064 c0 -8 5 -12 10 -9 6 4 8 11 5 16 -9 14 -15 11 -15 -7z"/>
<path d="M2538 1043 c7 -3 16 -2 19 1 4 3 -2 6 -13 5 -11 0 -14 -3 -6 -6z"/>
<path d="M1350 320 c-39 -39 -16 -153 34 -166 37 -9 84 23 98 67 15 53 4 84
-36 103 -45 21 -72 20 -96 -4z m65 -61 c0 -24 -5 -35 -17 -37 -14 -3 -18 4
-18 31 0 18 3 37 7 41 15 14 28 -2 28 -35z"/>
<path d="M1515 307 c-8 -18 -12 -42 -10 -53 2 -10 7 -36 10 -56 5 -29 11 -38
26 -38 18 0 20 6 17 87 -3 96 -19 118 -43 60z"/>
<path d="M1601 331 c-10 -7 -13 -27 -9 -85 3 -42 8 -80 12 -84 8 -8 104 -7
113 1 2 3 2 15 -2 26 -4 13 -16 21 -38 23 -31 3 -32 4 -37 62 -5 60 -14 73
-39 57z"/>
<path d="M1757 320 c-34 -27 -37 -79 -7 -128 24 -39 38 -46 72 -33 32 12 52
68 45 123 -6 48 -6 47 -48 54 -25 4 -41 0 -62 -16z m63 -65 c0 -49 -14 -66
-29 -36 -14 26 -14 64 1 79 18 18 28 4 28 -43z"/>
<path d="M2036 324 c-11 -10 -16 -34 -16 -74 0 -51 3 -61 26 -79 50 -39 134
-17 134 35 0 20 -5 24 -31 24 -22 0 -32 -5 -36 -20 -3 -11 -8 -20 -12 -20 -15
1 -42 53 -39 78 3 26 5 27 61 24 50 -2 57 0 57 17 0 33 -115 45 -144 15z"/>
<path d="M2498 326 c-16 -9 -30 -11 -33 -5 -4 5 -15 9 -27 9 -16 0 -19 -4 -14
-22 4 -13 11 -50 16 -82 5 -32 13 -63 19 -69 17 -17 31 4 31 48 0 29 5 45 15
49 8 3 15 16 15 30 0 14 5 28 10 31 12 7 13 25 3 25 -5 0 -20 -7 -35 -14z"/>
<path d="M888 314 c-21 -11 -28 -22 -28 -44 0 -25 6 -32 36 -45 20 -8 40 -12
46 -9 19 12 27 53 17 84 -12 33 -30 37 -71 14z"/>
<path d="M1110 245 c0 -84 0 -85 25 -85 25 0 25 1 25 85 0 84 0 85 -25 85 -25
0 -25 -1 -25 -85z"/>
<path d="M1190 245 l0 -85 65 0 c36 0 65 4 65 9 0 25 -14 41 -36 41 -23 0 -24
3 -24 60 l0 60 -35 0 -35 0 0 -85z"/>
<path d="M2200 245 c0 -84 0 -85 25 -85 25 0 25 1 25 85 0 84 0 85 -25 85 -25
0 -25 -1 -25 -85z"/>
<path d="M2270 315 c0 -7 6 -18 14 -22 10 -5 16 -29 18 -68 3 -57 4 -60 31
-63 l27 -3 0 66 c0 57 3 70 23 86 22 18 22 18 -45 19 -53 0 -68 -3 -68 -15z"/>
<path d="M2651 304 c-27 -34 -26 -45 3 -73 30 -28 52 -25 79 12 l21 27 -21 28
c-27 37 -56 39 -82 6z"/>
</g>
</svg>
